<?xml version="1.0" standalone="no"?>
<!DOCTYPE svg PUBLIC "-//W3C//DTD SVG 20010904//EN"
 "http://www.w3.org/TR/2001/REC-SVG-20010904/DTD/svg10.dtd">
<svg version="1.0" xmlns="http://www.w3.org/2000/svg"
 width="720.000000pt" height="720.000000pt" viewBox="0 0 720.000000 720.000000"
 preserveAspectRatio="xMidYMid meet">
<metadata>
Created by potrace 1.11, written by Peter Selinger 2001-2013
</metadata>
<g transform="translate(0.000000,720.000000) scale(0.100000,-0.100000)"
fill="#000000" stroke="none">
<path d="M1164 5140 c-6 -6 -19 -12 -30 -14 -37 -8 -114 -47 -114 -58 0 -6 -2
-9 -5 -6 -8 7 -85 -67 -85 -81 0 -6 -4 -11 -9 -11 -4 0 -21 -28 -36 -62 -34
-76 -44 -180 -24 -259 7 -30 12 -57 11 -61 -1 -5 1 -8 6 -8 4 0 13 -15 21 -32
8 -18 17 -35 21 -38 3 -3 20 -27 38 -55 17 -27 35 -55 39 -60 26 -34 93 -134
93 -140 0 -8 63 -89 73 -93 4 -2 7 -8 7 -14 0 -10 135 -215 149 -228 3 -3 12
-17 20 -32 8 -15 22 -37 33 -47 10 -11 18 -25 18 -31 0 -5 5 -10 10 -10 6 0
10 -5 10 -11 0 -9 54 -93 70 -109 3 -3 11 -17 19 -32 8 -16 18 -28 23 -28 4 0
8 -6 8 -13 0 -8 9 -22 20 -32 11 -10 20 -24 20 -32 0 -7 3 -13 8 -13 4 0 12
-9 17 -20 10 -19 285 -430 295 -440 3 -3 63 -93 135 -200 71 -107 133 -199
137 -205 5 -5 40 -57 78 -115 38 -58 73 -109 77 -115 4 -5 46 -66 92 -135 46
-69 101 -141 122 -161 45 -41 142 -92 181 -94 15 -1 31 -4 34 -8 9 -9 119 -9
128 0 3 4 15 8 26 10 34 5 45 8 50 13 3 3 23 14 45 25 89 44 180 162 201 260
16 76 11 161 -13 225 -3 8 -7 21 -9 28 -1 7 -78 125 -171 262 -92 138 -173
259 -179 270 -6 11 -18 28 -27 38 -10 10 -17 23 -17 29 0 6 -4 13 -8 15 -4 2
-44 57 -87 123 -44 66 -82 122 -85 125 -3 3 -21 30 -40 60 -19 30 -38 57 -42
58 -5 2 -8 8 -8 14 0 5 -6 16 -12 23 -31 35 -38 45 -31 45 4 0 3 4 -2 8 -14 9
-295 429 -295 439 0 5 -9 15 -20 23 -11 8 -20 20 -20 26 0 7 -6 19 -13 26 -7
7 -71 101 -142 208 -72 107 -135 201 -142 208 -6 6 -15 21 -18 32 -3 11 -10
20 -15 20 -5 0 -12 9 -15 20 -3 11 -12 26 -18 32 -7 7 -53 74 -102 148 -49 74
-112 156 -138 183 -48 47 -139 97 -177 97 -11 0 -20 5 -20 10 0 6 -5 10 -11
10 -5 0 -7 -6 -3 -12 6 -10 4 -10 -7 0 -7 6 -37 12 -66 12 -36 0 -53 -4 -53
-12 0 -10 -2 -10 -8 -1 -6 9 -11 10 -18 3z"/>
<path d="M3515 5142 c-3 -3 -15 -7 -26 -9 -49 -7 -138 -61 -191 -115 -32 -32
-58 -64 -58 -72 0 -7 -7 -19 -15 -26 -9 -7 -13 -15 -11 -18 3 -2 -2 -21 -10
-41 -21 -49 -24 -154 -7 -219 30 -115 119 -224 213 -261 19 -8 40 -18 46 -22
16 -12 164 -28 177 -19 1 1 16 3 33 5 16 2 48 11 70 21 21 9 42 16 47 16 4 -1
7 2 7 7 0 5 8 12 18 15 25 8 143 126 126 126 -3 0 1 12 11 26 38 58 55 167 41
266 -9 61 -59 150 -117 207 -54 53 -139 101 -179 101 -11 0 -20 4 -20 8 0 10
-145 13 -155 4z"/>
<path d="M5891 5141 c-8 -5 -20 -7 -28 -4 -7 3 -13 1 -13 -4 0 -5 -6 -10 -12
-10 -31 0 -111 -47 -155 -91 -26 -27 -133 -174 -236 -328 -103 -153 -200 -297
-215 -319 -16 -22 -31 -48 -35 -57 -3 -10 -11 -18 -17 -18 -5 0 -10 -5 -10
-10 0 -9 -95 -157 -110 -170 -3 -3 -9 -13 -15 -22 -5 -10 -77 -117 -160 -239
-82 -121 -155 -228 -160 -237 -20 -32 -50 -77 -55 -82 -3 -3 -34 -50 -70 -104
-36 -55 -69 -104 -75 -110 -5 -6 -16 -23 -24 -38 -8 -15 -22 -37 -33 -47 -10
-11 -18 -24 -18 -28 0 -4 -11 -20 -23 -35 l-24 -27 -51 75 c-29 42 -52 80 -52
85 0 5 -3 9 -8 9 -4 0 -16 16 -26 35 -11 19 -23 35 -28 35 -4 0 -8 5 -8 10 0
9 -74 124 -90 140 -3 3 -11 17 -19 33 -8 15 -18 27 -23 27 -4 0 -8 6 -8 13 -1
6 -14 28 -30 47 -17 19 -30 40 -30 47 0 7 -4 13 -10 13 -5 0 -10 6 -10 13 0 8
-9 22 -20 32 -11 10 -20 24 -20 32 0 7 -7 16 -15 19 -8 4 -15 11 -15 18 0 28
-152 163 -180 159 -3 -1 -13 3 -23 9 -26 14 -53 19 -125 23 -111 7 -231 -43
-311 -130 -121 -132 -138 -329 -41 -489 19 -31 38 -56 42 -56 4 0 8 -5 8 -11
0 -12 79 -131 94 -141 7 -5 7 -8 1 -8 -6 0 -6 -3 1 -8 9 -6 128 -177 169 -243
25 -41 95 -145 105 -156 5 -7 10 -16 10 -22 0 -5 4 -11 8 -13 8 -3 176 -248
198 -288 6 -11 18 -28 27 -38 10 -10 17 -24 17 -30 0 -7 4 -12 8 -12 5 0 17
-16 28 -35 10 -19 22 -35 26 -35 5 0 8 -5 8 -11 0 -19 77 -124 123 -166 50
-46 133 -92 172 -95 14 -1 25 -6 25 -10 0 -4 37 -5 83 -3 97 5 107 6 107 15 0
4 6 7 13 7 26 0 104 46 151 89 27 24 44 44 40 44 -5 0 -4 4 2 8 6 4 29 34 50
67 22 34 45 67 52 75 7 8 50 71 95 140 123 185 290 434 297 440 3 3 11 17 19
33 8 15 18 27 23 27 4 0 8 4 8 10 0 5 20 38 45 73 25 36 45 70 45 76 0 6 4 11
8 11 5 0 30 34 56 75 26 41 53 81 59 88 7 6 18 24 26 39 8 15 22 37 33 47 10
11 18 22 18 24 0 4 191 292 207 312 28 36 113 166 113 174 0 5 7 12 16 15 8 3
13 10 10 15 -4 5 -3 11 1 13 13 5 65 78 56 78 -4 0 -3 4 2 8 15 10 105 141
105 152 0 4 3 10 8 12 10 4 92 125 92 136 0 6 7 12 15 16 8 3 15 12 15 21 0 8
5 15 10 15 6 0 10 7 10 15 0 8 5 15 10 15 6 0 10 4 10 10 0 5 16 32 35 59 33
46 62 104 74 146 3 11 6 63 6 115 0 89 -2 100 -34 165 -43 87 -119 161 -199
193 -31 13 -64 27 -72 31 -24 11 -143 13 -159 2z"/>
</g>
</svg>
