<svg version="1" xmlns="http://www.w3.org/2000/svg" width="2293.333" height="2293.333" viewBox="0 0 1720.000000 1720.000000"><path d="M808.9 428c-59.2 9.4-105.3 54.6-115.4 113.4-1.9 11.5-1.9 33.7 0 45.2 6.5 37.8 28.5 71.5 60 92 14.8 9.6 26.6 14.7 44.5 19.2 9.7 2.5 12.1 2.7 31 2.7s21.3-.2 31-2.7c17.9-4.5 29.7-9.6 44.5-19.2 31.5-20.5 53.5-54.2 60-92 1.9-11.5 1.9-33.7 0-45.2-8.3-48.4-41.7-88.9-87.4-106.1-14.9-5.6-25.4-7.5-44.6-7.8-9.9-.2-20.5 0-23.6.5z"/><path d="M1546.1 495c-13.9 3.7-25.4 10.4-34.7 20.2-2.8 2.9-100.7 134.2-217.4 291.8-116.8 157.6-213 287.3-213.9 288.2-1.5 1.5-8.1-9.9-86.6-149-46.7-82.8-87.1-153.7-89.6-157.6-2.5-3.9-7.3-10-10.8-13.6-3.4-3.6-8.2-8.8-10.7-11.7-9.4-10.9-23.8-19.5-39.4-23.4-7.1-1.8-10.4-2.1-21-1.7-10.7.4-13.9 1-22.2 3.8-17.3 5.8-32.6 16.5-43 30.1-3.4 4.4-39.7 67.6-88.7 154.3-45.7 80.8-83.4 147.3-83.9 147.8s-93.1-123.5-206.7-276.7C230.5 599.2 170 518.3 165.6 514.2c-7.8-7.2-16.8-12.5-27.1-15.9-7.2-2.5-9.4-2.7-22.5-2.7s-15.3.2-22.5 2.7c-11.5 3.8-19.9 9.1-29 18.2-14.4 14.4-20.4 28.4-21.3 49.1-.5 14.8 1.6 24.6 8 36.5 6.5 12.1 491.4 665.4 499.2 672.6 7.8 7.3 16.8 12.6 27.1 16 7.2 2.5 9.4 2.7 22.5 2.7s15.3-.2 22.5-2.7c4.4-1.4 10.9-4.3 14.5-6.4 8.5-4.9 21.5-18.1 26-26.1 1.9-3.5 5.5-9.4 8-13 2.4-3.7 37.9-65.9 78.8-138.2 40.9-72.3 74.6-131.8 75-132.2.4-.4 35.6 61 78.2 136.5 44.5 78.7 80 140.5 83.4 145 10.5 14 25.9 24.9 43.4 30.7 9 3 11.1 3.3 30.2 4.2 11.3.5 23.7.7 27.5.5 14.7-1.1 30.5-8.2 42-18.9 7.9-7.3 492.8-660.7 499.3-672.7 6.4-11.9 8.5-21.7 8-36.5-.9-20.7-6.9-34.7-21.3-49.1-14.6-14.6-28.5-20.5-49.5-21.1-10.2-.3-13.9 0-19.9 1.6z"/></svg>